<svg aria-hidden="true" style="position: absolute; width: 0; height: 0; overflow: hidden;" version="1.1" xmlns="http://www.w3.org/2000/svg" xmlns:xlink="http://www.w3.org/1999/xlink">
<defs>
<symbol id="search" width="42" height="39" viewBox="0 0 42 39" fill="#CECBCB" >
  <path fill="#CECBCB" d="M33.633 33.9763L22.8224 23.7834C21.9644 24.4305 20.9777 24.9429 19.8623 25.3204C18.747 25.6979 17.5601 25.8867 16.3017 25.8867C13.1844 25.8867 10.5461 24.8687 8.38679 22.8329C6.22752 20.797 5.14789 18.3094 5.14789 15.3702C5.14789 12.431 6.22752 9.94346 8.38679 7.90758C10.5461 5.8717 13.1844 4.85376 16.3017 4.85376C19.4191 4.85376 22.0574 5.8717 24.2166 7.90758C26.3759 9.94346 27.4555 12.431 27.4555 15.3702C27.4555 16.5567 27.2553 17.6757 26.8549 18.7274C26.4545 19.779 25.9112 20.7093 25.2248 21.5183L36.0354 31.7112L33.633 33.9763ZM16.3017 22.6508C18.4467 22.6508 20.2699 21.943 21.7714 20.5273C23.2728 19.1116 24.0236 17.3926 24.0236 15.3702C24.0236 13.3478 23.2728 11.6288 21.7714 10.2131C20.2699 8.79743 18.4467 8.08959 16.3017 8.08959C14.1567 8.08959 12.3335 8.79743 10.832 10.2131C9.33057 11.6288 8.57983 13.3478 8.57983 15.3702C8.57983 17.3926 9.33057 19.1116 10.832 20.5273C12.3335 21.943 14.1567 22.6508 16.3017 22.6508Z" fill="white" />
</symbol>
<symbol id="cart" width="44" height="40" viewBox="0 0 44 40" fill="none" >
  <path fill="#CECBCB" d="M1.83331 1.70831H9.16665L14.08 24.5829C14.2476 25.3694 14.7068 26.0759 15.3771 26.5787C16.0475 27.0816 16.8863 27.3487 17.7466 27.3333H35.5666C36.427 27.3487 37.2658 27.0816 37.9362 26.5787C38.6065 26.0759 39.0657 25.3694 39.2333 24.5829L42.1666 10.25H11M18.3333 35.875C18.3333 36.8185 17.5125 37.5833 16.5 37.5833C15.4875 37.5833 14.6666 36.8185 14.6666 35.875C14.6666 34.9315 15.4875 34.1666 16.5 34.1666C17.5125 34.1666 18.3333 34.9315 18.3333 35.875ZM38.5 35.875C38.5 36.8185 37.6792 37.5833 36.6666 37.5833C35.6541 37.5833 34.8333 36.8185 34.8333 35.875C34.8333 34.9315 35.6541 34.1666 36.6666 34.1666C37.6792 34.1666 38.5 34.9315 38.5 35.875Z" stroke="white" stroke-width="4" stroke-linecap="round" stroke-linejoin="round" />
</symbol>
 <symbol id="icon-left" viewBox="0 0 65 65">
    <rect x="0.5" y="0.365601" width="64" height="64" rx="32" fill="#CECBCB"/>
    <path d="M44.17 16.1056L40.61 12.5656L20.83 32.3656L40.63 52.1656L44.17 48.6256L27.91 32.3656L44.17 16.1056Z" fill="black"/>
  </symbol>
<symbol id="icon-right" viewBox="0 0 65 65">
    <rect x="0.5" y="0.365601" width="64" height="64" rx="32" fill="#CECBCB"/>
    <path d="M20.73 48.8256L24.27 52.3656L44.27 32.3656L24.27 12.3656L20.73 15.9056L37.19 32.3656L20.73 48.8256Z" fill="black"/>
  </symbol>

<symbol id="location" width="48" height="68" viewBox="0 0 48 68" fill="none" xmlns="http://www.w3.org/2000/svg">
  <path d="M24 67.3333C23.2222 67.3333 22.5556 67.1111 22 66.6666C21.4445 66.2222 21.0278 65.6388 20.75 64.9166C19.6945 61.8055 18.3611 58.8888 16.75 56.1666C15.1945 53.4444 13 50.25 10.1667 46.5833C7.33336 42.9166 5.0278 39.4166 3.25002 36.0833C1.5278 32.75 0.666687 28.7222 0.666687 24C0.666687 17.5 2.91669 12 7.41669 7.49996C11.9722 2.9444 17.5 0.666626 24 0.666626C30.5 0.666626 36 2.9444 40.5 7.49996C45.0556 12 47.3334 17.5 47.3334 24C47.3334 29.0555 46.3611 33.2777 44.4167 36.6666C42.5278 40 40.3334 43.3055 37.8334 46.5833C34.8334 50.5833 32.5556 53.9166 31 56.5833C29.5 59.1944 28.25 61.9722 27.25 64.9166C26.9722 65.6944 26.5278 66.3055 25.9167 66.75C25.3611 67.1388 24.7222 67.3333 24 67.3333ZM24 55.4166C24.9445 53.5277 26 51.6666 27.1667 49.8333C28.3889 48 30.1667 45.5555 32.5 42.5C34.8889 39.3888 36.8334 36.5277 38.3334 33.9166C39.8889 31.25 40.6667 27.9444 40.6667 24C40.6667 19.3888 39.0278 15.4722 35.75 12.25C32.5278 8.97218 28.6111 7.33329 24 7.33329C19.3889 7.33329 15.4445 8.97218 12.1667 12.25C8.94447 15.4722 7.33336 19.3888 7.33336 24C7.33336 27.9444 8.08335 31.25 9.58335 33.9166C11.1389 36.5277 13.1111 39.3888 15.5 42.5C17.8334 45.5555 19.5834 48 20.75 49.8333C21.9722 51.6666 23.0556 53.5277 24 55.4166ZM24 32.3333C26.3334 32.3333 28.3056 31.5277 29.9167 29.9166C31.5278 28.3055 32.3334 26.3333 32.3334 24C32.3334 21.6666 31.5278 19.6944 29.9167 18.0833C28.3056 16.4722 26.3334 15.6666 24 15.6666C21.6667 15.6666 19.6945 16.4722 18.0834 18.0833C16.4722 19.6944 15.6667 21.6666 15.6667 24C15.6667 26.3333 16.4722 28.3055 18.0834 29.9166C19.6945 31.5277 21.6667 32.3333 24 32.3333Z" fill="#1D1B20" />
</symbol>
<symbol id="facebook" width="50" height="88" viewBox="0 0 50 88" fill="none" xmlns="http://www.w3.org/2000/svg">
  <path d="M48 2.33325H35.5C29.9747 2.33325 24.6756 4.52819 20.7686 8.43519C16.8616 12.3422 14.6667 17.6412 14.6667 23.1666V35.6666H2.16669V52.3333H14.6667V85.6666H31.3334V52.3333H43.8334L48 35.6666H31.3334V23.1666C31.3334 22.0615 31.7723 21.0017 32.5537 20.2203C33.3351 19.4389 34.395 18.9999 35.5 18.9999H48V2.33325Z" stroke="white" stroke-width="4" stroke-linecap="round" stroke-linejoin="round" />
</symbol>
<symbol id="instagram" width="88" height="88" viewBox="0 0 88 88" fill="none" xmlns="http://www.w3.org/2000/svg">
  <path d="M66.9167 21.0833H66.9583M23.1667 2.33325H64.8333C76.3393 2.33325 85.6667 11.6607 85.6667 23.1666V64.8332C85.6667 76.3392 76.3393 85.6666 64.8333 85.6666H23.1667C11.6607 85.6666 2.33334 76.3392 2.33334 64.8332V23.1666C2.33334 11.6607 11.6607 2.33325 23.1667 2.33325ZM60.6667 41.3749C61.1809 44.8426 60.5886 48.3842 58.974 51.4958C57.3594 54.6075 54.8048 57.1308 51.6735 58.7069C48.5421 60.283 44.9935 60.8316 41.5325 60.2746C38.0714 59.7177 34.874 58.0836 32.3952 55.6048C29.9163 53.1259 28.2822 49.9286 27.7253 46.4675C27.1684 43.0064 27.7169 39.4578 29.293 36.3265C30.8691 33.1951 33.3925 30.6405 36.5041 29.0259C39.6158 27.4113 43.1573 26.819 46.625 27.3333C50.1622 27.8578 53.4369 29.506 55.9654 32.0345C58.4939 34.563 60.1422 37.8377 60.6667 41.3749Z" stroke="white" stroke-width="4" stroke-linecap="round" stroke-linejoin="round" />
</symbol>
<symbol id="twitter" width="96" height="80" viewBox="0 0 96 80" fill="none" xmlns="http://www.w3.org/2000/svg">
  <path d="M93.8333 2.49991C89.8433 5.3144 85.4254 7.46703 80.75 8.87491C78.2406 5.98954 74.9056 3.94446 71.196 3.01627C67.4864 2.08807 63.5812 2.32156 60.0087 3.68513C56.4361 5.0487 53.3685 7.47658 51.2208 10.6404C49.073 13.8042 47.9487 17.5513 48 21.3749V25.5416C40.6776 25.7314 33.422 24.1075 26.8792 20.8143C20.3364 17.5211 14.7096 12.6609 10.5 6.66657C10.5 6.66657 -6.16668 44.1666 31.3333 60.8332C22.7522 66.6581 12.5298 69.5788 2.16666 69.1666C39.6667 89.9999 85.5 69.1666 85.5 21.2499C85.4962 20.0893 85.3846 18.9316 85.1667 17.7916C89.4192 13.5978 92.4201 8.30288 93.8333 2.49991Z" stroke="white" stroke-width="4" stroke-linecap="round" stroke-linejoin="round" />
</symbol>
<symbol id="send" width="44" height="44" viewBox="0 0 44 44" fill="none" xmlns="http://www.w3.org/2000/svg">
  <path d="M42 2L20 24M42 2L28 42L20 24M42 2L2 16L20 24" stroke="#1E1E1E" stroke-width="4" stroke-linecap="round" stroke-linejoin="round" />
</symbol>
<symbol id="back" width="47" height="44" viewBox="0 0 47 44" fill="none" xmlns="http://www.w3.org/2000/svg">
  <path d="M11.4969 24.75L27.5969 40.15L23.5 44L0.5 22L23.5 0L27.5969 3.85L11.4969 19.25H46.5V24.75H11.4969Z" fill="black" />
</symbol>
<symbol id="delete" width="16" height="18" viewBox="0 0 16 18" fill="none" xmlns="http://www.w3.org/2000ysymbol id=""">
  <path d="M3 18C2.45 18 1.97917 17.8042 1.5875 17.4125C1.19583 17.0208 1 16.55 1 16V3H0V1H5V0H11V1H16V3H15V16C15 16.55 14.8042 17.0208 14.4125 17.4125C14.0208 17.8042 13.55 18 13 18H3ZM13 3H3V16H13V3ZM5 14H7V5H5V14ZM9 14H11V5H9V14Z" fill="#1D1B20" />
</symbol>
<symbol id="close" viewBox="0 0 32 32">
<path fill="#fff" style="fill: var(--color3, #fff)" d="M25.333 8.547l-1.88-1.88-7.453 7.453-7.467-7.453-1.867 1.88 7.453 7.453-7.453 7.453 1.867 1.88 7.467-7.453 7.453 7.453 1.88-1.88-7.467-7.453 7.467-7.453z"></path>
</symbol>
<symbol id="menu" viewBox="0 0 32 32">
<path fill="#fff" style="fill: var(--color3, #fff)" d="M4 24h24v-2.667h-24v2.667zM4 17.333h24v-2.667h-24v2.667zM4 8v2.667h24v-2.667h-24z"></path>
</symbol>
<symbol id="addToCart" width="239" height="76" viewBox="0 0 239 76" fill="none" xmlns="http://www.w3.org/2000/svg">
  <path d="M43 27.9999L43 36.9999M43 36.9999V45.9998M43 36.9999H52M43 36.9999H34M14 75H225C232.18 75 238 69.1797 238 62V14C238 6.8203 232.18 1 225 1H14C6.8203 1 1 6.8203 1 14V62C1 69.1797 6.8203 75 14 75ZM95.264 47L93.824 40.76H87.744L86.304 47H84.64L89.632 25.688H91.936L96.928 47H95.264ZM88.064 39.32H93.504L90.784 27.512L88.064 39.32ZM107.739 30.456H104.699C102.395 30.456 101.243 31.48 101.243 33.528V42.488C101.243 44.6 102.256 45.656 104.283 45.656C105.733 45.656 106.885 45.2293 107.739 44.376V30.456ZM107.739 24.184H109.339V47H107.771V46.008C106.832 46.7333 105.627 47.096 104.155 47.096C102.704 47.096 101.584 46.7013 100.795 45.912C100.027 45.1013 99.6425 43.9493 99.6425 42.456V33.528C99.6425 32.0773 100.08 30.9573 100.954 30.168C101.829 29.3787 102.949 28.984 104.314 28.984H107.739V24.184ZM121.926 30.456H118.886C116.582 30.456 115.43 31.48 115.43 33.528V42.488C115.43 44.6 116.443 45.656 118.47 45.656C119.921 45.656 121.073 45.2293 121.926 44.376V30.456ZM121.926 24.184H123.526V47H121.958V46.008C121.019 46.7333 119.814 47.096 118.342 47.096C116.891 47.096 115.771 46.7013 114.982 45.912C114.214 45.1013 113.83 43.9493 113.83 42.456V33.528C113.83 32.0773 114.267 30.9573 115.142 30.168C116.017 29.3787 117.137 28.984 118.502 28.984H121.926V24.184ZM135.871 25.656V28.984H140.255V30.424H135.871V43.288C135.871 44.1413 136.074 44.7493 136.479 45.112C136.885 45.4747 137.525 45.656 138.399 45.656C139.274 45.656 140.01 45.5493 140.607 45.336V46.808C139.967 47 139.093 47.096 137.983 47.096C136.895 47.096 135.999 46.776 135.295 46.136C134.613 45.4747 134.271 44.5253 134.271 43.288V30.424H132.191V28.984H134.303L134.751 25.656H135.871ZM151.494 33.56C151.494 31.256 150.374 30.104 148.134 30.104C145.894 30.104 144.774 31.256 144.774 33.56V42.424C144.774 44.728 145.894 45.88 148.134 45.88C150.374 45.88 151.494 44.728 151.494 42.424V33.56ZM143.174 33.56C143.174 32.088 143.579 30.904 144.39 30.008C145.2 29.112 146.448 28.664 148.134 28.664C149.819 28.664 151.067 29.112 151.878 30.008C152.688 30.904 153.094 32.088 153.094 33.56V42.424C153.094 43.896 152.688 45.08 151.878 45.976C151.067 46.872 149.819 47.32 148.134 47.32C146.448 47.32 145.2 46.872 144.39 45.976C143.579 45.08 143.174 43.896 143.174 42.424V33.56ZM163.361 33.144C163.361 30.264 165.079 28.824 168.513 28.824C169.751 28.824 170.828 28.9627 171.745 29.24V30.712C170.785 30.4347 169.655 30.296 168.353 30.296C167.073 30.296 166.188 30.5307 165.697 31C165.207 31.4693 164.961 32.184 164.961 33.144V42.872C164.961 43.832 165.207 44.5467 165.697 45.016C166.188 45.464 167.084 45.688 168.385 45.688C169.708 45.688 170.849 45.528 171.809 45.208V46.712C170.743 47.0107 169.644 47.16 168.513 47.16C165.079 47.16 163.361 45.7307 163.361 42.872V33.144ZM175.782 41.88V42.872C175.782 43.8533 176.006 44.5787 176.454 45.048C176.923 45.496 177.702 45.72 178.79 45.72C180.347 45.72 181.68 45.2293 182.79 44.248V37.72L178.566 38.904C177.52 39.224 176.795 39.608 176.39 40.056C175.984 40.504 175.782 41.112 175.782 41.88ZM179.11 28.824C182.608 28.824 184.358 30.2747 184.358 33.176V47H182.79V45.72C182.384 46.04 182.032 46.2853 181.734 46.456C180.987 46.904 179.974 47.128 178.694 47.128C175.707 47.128 174.214 45.6987 174.214 42.84V41.816C174.214 39.704 175.494 38.2853 178.054 37.56L182.79 36.216V33.176C182.79 32.216 182.523 31.512 181.99 31.064C181.478 30.5947 180.486 30.36 179.014 30.36C177.563 30.36 176.24 30.5733 175.046 31V29.4C176.24 29.016 177.595 28.824 179.11 28.824ZM194.274 28.888H195.138V30.456H193.986C193.346 30.456 192.866 30.5627 192.546 30.776C192.226 30.968 192.012 31.096 191.906 31.16C191.799 31.224 191.596 31.3733 191.298 31.608C190.999 31.8427 190.764 32.0133 190.594 32.12V47H188.994V28.984H190.562V30.392C190.903 30.1573 191.159 29.976 191.33 29.848C191.5 29.6987 191.682 29.5707 191.874 29.464C192.087 29.336 192.258 29.2507 192.386 29.208C192.514 29.1653 192.684 29.112 192.898 29.048C193.26 28.9413 193.719 28.888 194.274 28.888ZM199.152 25.656V28.984H203.536V30.424H199.152V43.288C199.152 44.1413 199.355 44.7493 199.76 45.112C200.166 45.4747 200.806 45.656 201.68 45.656C202.555 45.656 203.291 45.5493 203.889 45.336V46.808C203.249 47 202.374 47.096 201.264 47.096C200.176 47.096 199.281 46.776 198.577 46.136C197.894 45.4747 197.553 44.5253 197.553 43.288V30.424H195.473V28.984H197.585L198.033 25.656H199.152ZM61 25.75L61 48.25C61 51.9779 57.9779 55 54.25 55H31.75C28.0221 55 25 51.9779 25 48.25V25.75C25 22.0221 28.0221 19 31.75 19H54.25C57.9779 19 61 22.0221 61 25.75Z" stroke="white" stroke-width="2" stroke-linecap="round" />
</symbol>
</defs>
</svg>
